<?xml version="1.0" encoding="UTF-8"?>
<svg id="Calque_1" data-name="Calque 1" xmlns="http://www.w3.org/2000/svg" xmlns:xlink="http://www.w3.org/1999/xlink" viewBox="0 0 525.81 574.19">
  <defs>
    <style>
      .cls-1 {
        fill: url(#Dégradé_sans_nom_32);
      }

      .cls-2 {
        fill: #c7c6d0;
      }

      .cls-3 {
        fill: #fff;
      }

      .cls-4 {
        fill: #b7afd1;
      }

      .cls-5 {
        fill: #a097c9;
      }

      .cls-6 {
        fill: url(#Dégradé_sans_nom_57);
        stroke: #fff;
        stroke-miterlimit: 10;
        stroke-width: .75px;
      }

      .cls-7 {
        fill: #dcdbdb;
      }

      .cls-8 {
        fill: url(#Dégradé_sans_nom_34);
      }

      .cls-9 {
        fill: url(#Dégradé_sans_nom_33);
      }
    </style>
    <linearGradient id="Dégradé_sans_nom_32" data-name="Dégradé sans nom 32" x1="315.57" y1="210.12" x2="265.08" y2="319.26" gradientUnits="userSpaceOnUse">
      <stop offset=".15" stop-color="#fbfafb"/>
      <stop offset="1" stop-color="#bbbbc1"/>
    </linearGradient>
    <linearGradient id="Dégradé_sans_nom_33" data-name="Dégradé sans nom 33" x1="202.02" y1="195.44" x2="170.65" y2="229.04" gradientUnits="userSpaceOnUse">
      <stop offset="0" stop-color="#f6f6f6"/>
      <stop offset="1" stop-color="#d0cfd1"/>
    </linearGradient>
    <linearGradient id="Dégradé_sans_nom_34" data-name="Dégradé sans nom 34" x1="234.8" y1="193.74" x2="250.06" y2="240.17" gradientUnits="userSpaceOnUse">
      <stop offset="0" stop-color="#f8f7f7"/>
      <stop offset="1" stop-color="#d0cfd1"/>
    </linearGradient>
    <linearGradient id="Dégradé_sans_nom_57" data-name="Dégradé sans nom 57" x1="103.4" y1="265.05" x2="437.46" y2="265.05" gradientUnits="userSpaceOnUse">
      <stop offset=".02" stop-color="#010101"/>
      <stop offset=".31" stop-color="#5b5b5b"/>
      <stop offset=".48" stop-color="#9d9d9d"/>
      <stop offset=".6" stop-color="#c6c6c6"/>
      <stop offset=".72" stop-color="#fff"/>
      <stop offset=".8" stop-color="#fff"/>
      <stop offset=".92" stop-color="#fff"/>
    </linearGradient>
  </defs>
  <g id="Objet_génératif" data-name="Objet génératif">
    <path class="cls-7" d="M128.49,278.79c1.06-1.26,3.42-2.86,4.06-4.38,1.01-2.39,3.31-14.46,2.98-16.94-.44-3.31-4.01-6.68-5.41-9.6-4.98-10.38-2.67-23.01-3.25-34.16-.91-1.78-1.33,6.9-1.35,7.34-.35,7.43-.16,18.22,2.44,25.13,1.51,4.03,5.13,7.13,5.41,11.43h-1.62c.09-1.02-.04-1.98-.27-2.96l-.41.42c-4.04-4.68-5.88-10.27-6.36-16.52-.21-2.68.56-10.69,0-12.42-.19-.58-.64-.62-.81-.28-.27.52-.59,10.57-.54,11.86.2,4.73,1.02,9.39,3.25,13.55.66,1.24,3.29,3.78,3.52,4.8.75,3.34-2.67,9.66-3.79,12.28-1.27-.57-2.63.16-3.25-.85-.62-4.37-2.42-8.42-2.98-12.85-.74-5.85.28-12.43,0-18.35h-1.08c-.08,7.95-1.44,16.11.81,23.86-1.03-.02-.74-.09-.54.71.96,3.76,4.05,11.4,5.68,15.1.48,1.08.72,1.99,1.62,2.82-.88-.02-.16.72-1.22.28-1.46-.61-6.83-16.14-7.44-18.49-.37-1.42-.12-2.93-.27-4.23-.03-.27-.79-.02-.81-.28-.28-2.98-.33-8.21-.27-11.29.1-5.28,3.07-28.05,7.17-31.48,1.34-1.12,4.23-2.1,4.74.42.46,2.26-.3,8.46-.27,11.29.06,5.58-.21,13.07,1.62,18.63,1.75,5.32,6.95,9.72,7.31,15.81.18,3.09-1.88,8.18-2.71,11.01-.04.14.07,2.62,0,2.82-.15.43-1.03.75-1.08.85-1.16,2.34-1.56,3.85-4.87,4.66Z"/>
    <path class="cls-3" d="M320.14,205.69c-2.15-2.28-5.48-2.66-8.05-4.41-7.39.61-14.52,2.96-21.84,4.27-.09.06-1.18,1.74-1.23,1.85-.32.71-.65,4.05-.82,4.56-.03.08-.97.76-1.09,1.14-4.88,15.02-6.92,32.52-9.49,48.57-.03,1.88-.1,3.75-.19,5.61,1.69-13,4.1-26.08,6.68-37.95.69-3.18,5-19.84,6.28-21.64.82-1.16,3.74-2.09,4.37-.57-2.1,2.77-3.95,5.53-5.19,8.83l.68.43.96-.85c4.56-8.2,8.36-10.79,17.61-11.39,1.05-.07,2.28-.24,3.14.57-.39-.88-.53-.88-1.09-1.57.54-.69,6.46,1.47,7.23,2.14,1.57,1.35.83,4.66,1.23,7.12l.55.14-.41.43-.14-.57s-.41-.06-.27.71c.04.24.83.4,1.09,1.85.29,1.59,1.52,6.66,1.36,7.83-.2,1.47-6.73,12.34-7.92,14.81-10.49,21.88-22.8,49.6-26.21,73.76-.79,5.6-1.38,11.28-1.98,16.96.51-1.07.89-2.16.96-3.25.09-1.61.58-2.94,1.32-4,.65-5.25,1.34-10.42,2.16-15.12.16-.93.1-3.46.27-4.27,1.21-5.64,4.21-12.49,6.28-18.23,1.99-5.54,4.68-11.97,7.1-17.94.2-.49-.39-.86-.27-1.14,3.63-8.95,8.47-18.83,12.56-27.34,1.12-2.33,6.85-12.39,7.1-13.67.86-4.39-3.12-12.78-2.73-17.66Z"/>
    <path class="cls-7" d="M231.42,262.22c8.25-23.87,20.41-43.26,37.94-60.8,0-.77-.48-.34-.82-.28-3.53.6-14.61,13.28-17.2,16.66l-.27-1c1.81-2.66,11.07-12.73,11.47-15.09.08-.49-1.89-9.14-2.18-9.68-.82-1.51-3.2-2.17-4.5-2.99-.45-.29.29-.69,0-.85-.52-.3-1.04.31-1.09.28-.33-.17-.42-.83-1.09-1.14-5.29-2.43-7.5-.24-12.01,2.85l-.27-.57c-2.64,1.47-4.38,4.19-6.69,5.98-.3.24-1.16,1.19-1.23,1.14-1.68-1.33,6.34-7.54,7.51-8.12-3.74-.59-6.19.84-8.46,3.99-8.9,12.34-6.22,34.9-4.64,49.41.64,5.89,1.68,11.78,2.46,17.66.14,1.07.05,3.64.82,3.7-.15.44.33,1.01-.68.85-2.56-9.23-3.24-19.12-4.78-28.34-.69-8.5-1.28-16.82-.27-24.78.77-6.08,3.83-21.08,10.24-23.49.44-.16,1.04.52,1.64.28,1.03-.41,2.9-1.69,3.82-1.99.5-.16.85.44,1.36.28,2.44-.73,4.89-1.79,7.1-2.56,3.13.47,5.5,2.18,7.37,2.85,2.4.86,9.12,2.28,10.92,3.99s2.28,8.87,3.14,10.96c-7.53,9.41-16.12,17.93-22.66,28.19-5.81,9.13-9.46,18.25-13.65,27.91-.15.35-.39-.35-.55,0-.26.6-.75,5.62-2.73,4.7Z"/>
    <path class="cls-3" d="M275.92,377.28c2.27-1.93,4.81-6.97,7.1-9.26-12.02-12.18-23.34-25.29-32.48-40.01-5.01-8.07-8.89-16.28-13.1-24.78-.56-1.12-.86-2.61-1.77-3.42-.63,5.11.99,10.22,1.5,15.24,1.03,10.04.99,22.23,2.73,31.9.06.36,1.11,5.7,1.64,3.99.63-2.06-2.87-13.43-1.36-16.66.39,3.49.31,7.63.82,10.96.63,4.16,2.38,7.93,2.73,12.1-.21-.33-.29-.44-.41-.85-.24.06-.69-.08-.82,0-.9.58,5.07,14.81,5.87,16.52,1.45,3.09,2.86,6.12,4.91,8.83-.08,0-.85.55-1.5.28-7.31-10.85-11.56-24.59-13.24-37.45-1.37-10.5-1.89-22.75-3-33.32,0-.07-.75-.45-.82-1.14-.51-4.9-1.18-9.94.14-14.67,4.2,6.35,6.83,13.93,10.51,20.65,10.49,19.15,24.24,36.19,39.31,51.55.16.95-6.97,10.16-8.05,10.39-1.19.26-.24-.7-.68-.85Z"/>
    <path class="cls-5" d="M180.92,326.02c8.99,16.9,20.47,32.5,33.85,45.85-.93,1.19-6.96,9.17-7.51,9.4-4.43,1.88-17.06-.24-21.16-3.13-3.15-2.22-4.57-6.01-6.28-9.4l-6.01-17.51c1.56-3.49,1.51,1.64,1.64,1.99,1.88,5.3,6.2,18.97,10.37,22.36,5.19,4.21,12.68,3.61,18.97,3.7,1.78-.39,5-6.28,6.69-7.83.04-.85-1.05-.94-1.09-1-.35-.44-.76-.75-1.09-1.14-8.15-9.6-14.31-18.72-21.57-28.91-.36-.5-.68-1.34-1.36-.71-1.73-3.08-4.62-7.25-5.73-10.54-.4-1.18-1.59-3.65.27-3.13Z"/>
    <path class="cls-5" d="M275.92,377.28c-3.69,3.14-17.75,4.8-22.66,4.56-2.06-2.71-3.47-5.74-4.91-8.83l.82-.85c.76,1.63,2.68,5.73,3.82,6.83.03.03-.05.69.41.85,6.92-.33,13.67-2.21,20.47-3.42l6.14-8.4c-3.77-5.12-8.51-9.38-12.56-14.24-3.67-4.41-9.38-11.05-12.28-15.81-2-3.28-2.82-6.45-4.64-9.97,9.15,14.72,20.46,27.83,32.48,40.01-2.29,2.29-4.82,7.32-7.1,9.26Z"/>
    <path class="cls-4" d="M231.42,262.22c-.19.55-.18.85-.27,1.14-.76-.07-.68-2.63-.82-3.7.76.08.87-.72,1.09-1.28,6.3-15.78,9.31-26.73,19.93-40.58,2.59-3.38,13.67-16.06,17.2-16.66.34-.06.82-.48.82.28-17.53,17.55-29.7,36.94-37.94,60.8Z"/>
    <path class="cls-3" d="M321.23,361.33c1.47-.77,7.05-9.9,9.83-10.96-7.54-8.43-14.4-17.61-19.93-27.62-.92-.47-.48,1.83-.55,2.42-.3,2.72-.17,5.26-.27,7.97-.13,3.38-.29,6.6-.55,9.97-.2,2.64-.15,5.86-.55,8.4-.55,3.56-2.38,7.17-2.46,10.68-.06-.01-.85.31-1.23,0-1.32-1.04,1.09-4.12,1.23-4.7,1.8-7.27,2.06-18.3,2.46-25.92.14-2.63-.18-5.19,0-7.69.04-.53.8-3.66,1.23-3.84l22.25,30.33c-2.5,1.44-8.29,10.33-10.1,11.11-.25.11-.92-.32-1.36-.14Z"/>
    <path class="cls-5" d="M321.23,361.33c-2.14,1.13-11.93,1.34-14.47.85.07-3.51,1.91-7.12,2.46-10.68.39-2.54.34-5.76.55-8.4,2.09-.86,1.45,5.28,1.36,6.69-.24,3.89-1.85,7.27-2.46,10.68,1.27.6,11.02-.5,12.42-1.42.39-.26.79-1.26.96-1.42,2.18-2.24,3.94-5.11,6.55-6.98.36-1.18-.95-1.52-1.36-2.14-5.42-7.99-10.39-14.48-15.56-22.93-.36-.59-.32-.99-1.09-.43.07-.59-.38-2.89.55-2.42,5.53,10.01,12.39,19.19,19.93,27.62-2.77,1.07-8.36,10.19-9.83,10.96Z"/>
    <path class="cls-5" d="M128.51,278.46c-.43.1-1.39.01-1.91,0-.91-.84-1.16-1.76-1.64-2.85,1.94.54,5.25-1.76,6.01-3.56.96-2.28,2.62-12.44,2.46-14.95-.28-4.34-3.93-7.47-5.46-11.53-2.62-6.97-2.81-17.85-2.46-25.35.02-.44.44-9.2,1.36-7.4.59,11.24-1.75,23.98,3.28,34.46,1.41,2.94,5.01,6.35,5.46,9.68.34,2.5-1.99,14.68-3,17.09-.64,1.53-3.03,3.15-4.09,4.41Z"/>
    <path class="cls-3" d="M177.1,316.05c.03.06.72.05,1.09.71.08.15.64,2.53.82,2.85,10.42,18.57,21.58,36.27,36.58,51.26l.27.57c-.21.56-1.06.38-1.09.43-13.38-13.35-24.86-28.95-33.85-45.85-2.13-4-5.41-9.77-6.82-13.95-.1-.29-.84-1.92,0-1.85.97,2.03,1.88,3.9,3,5.84Z"/>
    <path class="cls-3" d="M179.83,368.73c1.71,3.39,3.13,7.18,6.28,9.4-.29,1.03-1.6.29-2.05,0-3.63-2.38-5.68-10.27-6.96-13.67,1.04-.39,2.17,3.17,2.73,4.27Z"/>
    <path class="cls-7" d="M209.31,369.3c-.73-.2-.5.53-.55.57-5.84-4.84-10.42-11.32-14.74-17.66-2.86-4.19-5.16-8.09-7.64-12.53.69-.62,1.01.21,1.36.71,7.25,10.18,13.41,19.31,21.57,28.91Z"/>
    <path class="cls-7" d="M185.83,375.57c-.72-.94,1.42-.31,1.5-.28,3.8,1.09,13.96,3.49,17.47,2.28.76-.26,4.42-6.32,5.6-7.12.05.06,1.13.15,1.09,1-1.69,1.55-4.91,7.44-6.69,7.83-6.29-.09-13.78.51-18.97-3.7Z"/>
    <path class="cls-3" d="M194.02,352.22c4.33,6.34,8.9,12.82,14.74,17.66-.22.18-1.16.59-1.23.57-1.12-.29-15.4-16.91-15.15-18.08l1.64-.14Z"/>
    <g>
      <path class="cls-7" d="M177.1,316.05c-1.12-1.94-2.03-3.81-3-5.84-.84-.07-.1,1.56,0,1.85-.24,2.02,1.1,5.73,1.91,7.83,1.18,3.05,3.04,6.4,4.64,9.26,1.11,3.29,4.01,7.45,5.73,10.54,2.48,4.44,4.78,8.34,7.64,12.53l-1.64.14c-.25,1.17,14.03,17.79,15.15,18.08.07.02,1.01-.39,1.23-.57.05-.04-.18-.77.55-.57.33.39.74.7,1.09,1.14-1.17.8-4.83,6.86-5.6,7.12-3.51,1.21-13.67-1.19-17.47-2.28-.08-.02-2.22-.65-1.5.28-4.17-3.38-8.49-17.05-10.37-22.36-.12-.35-.08-5.48-1.64-1.99l6.01,17.51c-.56-1.1-1.69-4.67-2.73-4.27-1.04-2.75-2.58-5.88-3.55-8.97-.13-.4.57-.77.55-.85-.04-.15-.71-.19-.82-.57-4.28-14.23-4.13-20.51-3.28-35.6.32-5.63-.12-11.7,1.23-16.94,1.5,2.34,2.09,5.36,3.14,7.83.88,2.08,2.73,4.31,2.73,6.69Z"/>
      <path class="cls-3" d="M180.24,361.9c1-.27,4.53,8.52,5.6,9.54,1.33,1.28,4.46,1.5,6.14,2.14-.88,1.45.54.29.27,1.42-1.9-.7-6.05-.97-7.51-2.42-.5-.5-4.76-9.27-4.78-9.83,0-.32.1-.6.27-.85Z"/>
    </g>
    <path class="cls-2" d="M180.92,326.02c-1.87-.52-.67,1.95-.27,3.13-1.6-2.85-3.46-6.21-4.64-9.26-.81-2.1-2.15-5.81-1.91-7.83,1.41,4.18,4.7,9.96,6.82,13.95Z"/>
    <g>
      <path class="cls-3" d="M133.01,296.4c.35.05,1.41,6.51,1.5,7.26.54,4.71.32,10.65,1.09,14.24,1.33,6.2,5.89,13.8,9.28,19.37,4.36,7.17,9.68,13.79,13.92,21.07-3.77,2.34-8.87,5.54-13.24,3.56-20.32-9.23-20.85-40.76-15.42-59.09.31-1.04,2.14-6.51,2.87-6.41Z"/>
      <path class="cls-5" d="M141.71,356.49c4.33,2.63,6.86,3.5,11.87,1.42v-.85c-1.37-1.89-2.97-3.74-4.23-5.7-7.61-11.75-16.66-24.65-17.47-39.3-.11-1.97-.32-5.17.55-6.83.37,3.52.51,7.55,1.09,10.96,2.66,15.46,14.92,28.77,22.93,41.58-6.84,4.26-10.09,4.28-15.97-1.28-.09-.08-1.84-1.52-1.09-1.71.65.78,1.49,1.2,2.32,1.71Z"/>
      <path class="cls-7" d="M132.87,305.23c-.87,1.67-.66,4.86-.55,6.83-2.41,1.79,1.03,4.32-2.73,4.7,2.82,1.15,1.47,1.92,2.46,4.56-.37.43-2.25-.15-2.73.28-.55.5.79,13,1.09,14.81.09.51.81.8.82.85.01.07-.56.5-.55.57.42,2.11,1.9,4.15,1.36,6.27-.56.16-1.23-1.89-1.36-2.28-2.1-5.95-3.53-22.46-1.64-28.19.3-.92.79.39.82,0,.06-.84-.55-1.04-.55-1.14.05-1.14,2.38-11.74,3.14-11.53.77,1.24.26,2.84.41,4.27Z"/>
      <path class="cls-7" d="M141.71,356.49c2.71-.94,6.86.03,9.69.85.08-2.12-4.17-4.47-2.05-5.98,1.27,1.95,2.87,3.8,4.23,5.7v.85c-5.02,2.07-7.55,1.2-11.87-1.42Z"/>
    </g>
    <path class="cls-7" d="M133.42,257.62c.16,2.51-1.5,12.67-2.46,14.95-.76,1.8-4.07,4.1-6.01,3.56-1.65-3.74-4.76-11.45-5.73-15.24-.2-.8-.49-.73.55-.71.4,1.36,2.52,6.18,3.28,7.4.63,1.01,2,.28,3.28.85-.21.48-1.32,2.83-1.36,2.99-.14.48-.39.62.14,1,2.82-4.01,6.23-9.73,6.69-14.81h1.64Z"/>
    <path class="cls-3" d="M131.78,257.1c-.46,5.07-3.87,10.8-6.69,14.81-.53-.37-.28-.52-.14-1,.05-.16,1.16-2.51,1.36-2.99,1.13-2.64,4.58-9.02,3.82-12.39-.23-1.03-2.88-3.59-3.55-4.84-2.25-4.19-3.08-8.9-3.28-13.67-.05-1.3.27-11.43.55-11.96.18-.34.63-.3.82.28.56,1.75-.21,9.83,0,12.53.48,6.3,2.34,11.94,6.42,16.66l.41-.43c.23.99.37,1.97.27,2.99Z"/>
    <path class="cls-3" d="M123.05,266.44c-.75-1.22-2.88-6.04-3.28-7.4-2.27-7.81-.9-16.05-.82-24.06h1.09c.28,5.97-.75,12.61,0,18.51.57,4.46,2.37,8.55,3,12.96Z"/>
    <path class="cls-1" d="M316.35,216.37c-1.37-3.97-2.94-7.85-4.64-11.68-.86-.81-2.09-.64-3.14-.57-9.25.6-13.04,3.19-17.61,11.39-5.69,10.22-6.15,22.03-7.92,33.46-.17,1.12-2.63,7.44-.68,7.83.2.04.39-.16.53-.35-1.11,1.56-1.17-.8-1.76.21.41.72-1.06,4.52.82,3.56.04-.02.14-.5.27-.85.11-.29-.17-.86.14-1.14.51.44-.12,1.08-.14,1.14-.1.4.05.35-.27.85-.36.55-1.01-.08-1.36,1-.42,1.27-.34,4.87-.82,6.55-.13.47-1.28.83-1.36,1.14-1.43,5.35-.64,10.44-1.09,15.66-.03.35-1.09.78-1.09.85-.23,2.36.64,5.22.55,7.12-.01.24-.45,1.44-.68,2.64.03,1.29.06,2.58.06,3.87,0,.7-.08,1.34-.21,1.94l.07,1.03c.27.73.44,1.5.51,2.28,2.32,7.21,3.68,14.8,6.95,21.66.13.28.25.55.35.83,2.5-23.96,6.69-44.35,16.43-67.56,2.47-5.89,17.65-34.71,17.47-37.88-.07-1.19-1.55-3.71-1.36-4.98ZM283.56,255.39c-.09.46.03.37-.27.85.02-.04.05-.39.27-.85.09-.18-.15-.67.14-.85.48.51-.13.81-.14.85Z"/>
    <path class="cls-4" d="M320.14,214.95c-1.39-.61-3.32-.16-3.55,1.42-.18,1.28,1.3,3.79,1.36,4.98.18,3.17-15,31.99-17.47,37.88-9.74,23.21-13.93,43.6-16.43,67.56.4,1.12.53,2.21.45,3.24.32-.57.63-1.15.91-1.73.59-5.68,1.19-11.36,1.98-16.96,3.4-24.16,15.72-51.88,26.21-73.76,1.19-2.47,7.72-13.34,7.92-14.81.15-1.17-1.08-6.24-1.36-7.83Z"/>
    <path class="cls-7" d="M289.57,215.95c1.24-3.29,3.08-6.06,5.19-8.83-.63-1.52-3.55-.59-4.37.57-1.27,1.8-5.59,18.46-6.28,21.64-2.58,11.88-4.99,24.95-6.68,37.95-.13,2.61-.31,5.21-.57,7.78,0,.43-.02.87-.08,1.3-.88,6.19-.59,12.54-.45,18.82.23-1.19.67-2.4.68-2.64.1-1.9-.77-4.76-.55-7.12,0-.07,1.06-.51,1.09-.85.45-5.22-.34-10.31,1.09-15.66.08-.31,1.23-.67,1.36-1.14.48-1.68.4-5.28.82-6.55.36-1.08,1.01-.45,1.36-1-1.88.96-.41-2.84-.82-3.56.59-1.01.66,1.35,1.76-.21-.14.19-.33.39-.53.35-1.95-.39.51-6.71.68-7.83,1.77-11.43,2.23-23.24,7.92-33.46l-.96.85-.68-.43Z"/>
    <path class="cls-7" d="M319.32,212.39s-.41-.06-.27.71c.04.24.83.4,1.09,1.85-1.39-.61-3.32-.16-3.55,1.42-1.37-3.97-2.94-7.85-4.64-11.68-.39-.88-.53-.88-1.09-1.57.54-.69,6.46,1.47,7.23,2.14,1.57,1.35.83,4.66,1.23,7.12Z"/>
    <polygon class="cls-7" points="319.32 212.39 319.87 212.53 319.46 212.96 319.32 212.39"/>
    <g>
      <path class="cls-7" d="M187.61,180.77c7.23-.96,14.19,3.85,19.38,8.83,1.42,1.36,4.87,4.47,4.5,6.41-10.28,17.6-23.83,30.64-28.94,50.98-.35,1.4-.11,4.34-1.09,5.98-3.63,6.05-4.37-5.39-4.91-7.12-1.47-4.69-5.11-10.61-6.01-15.09-1.41-7.09-.52-23.61,1.36-30.76.07-.28,1.06-1.61,1.09-1.71.02-.06-.56-.51-.55-.57.03-.1,1.05-.53,1.36-1.42.03-.08-.39-1.41-.27-1.71,2.37-5.95,7.62-12.96,14.06-13.81Z"/>
      <path class="cls-9" d="M204.94,199.57c-6.68,7.27-20.47,27.26-23.2,36.59-1.13,3.87-1.22,8.29-2.18,11.96-.14.53-.51,1.36-1.09,1.57-1.97-7.35-4.34-13.56-6.82-20.65,1.96-3.97.93-8.7,1.36-13.1.74-7.55,1.23-13.72,4.64-20.5.83-1.64,6.92-11.25,8.05-11.53,2.74,1.39,10.36,1.87,12.56,3.13,1.38.79,5.51,10.56,6.69,12.53Z"/>
      <path class="cls-4" d="M178.46,249.69c.58-.2.95-1.03,1.09-1.57.97-3.67,1.05-8.09,2.18-11.96,2.73-9.33,16.52-29.32,23.2-36.59,1.48-1.61,3.22-3.03,4.78-4.56,1.45.71-15.42,23.8-16.52,25.49-2.56,3.96-6.99,10.09-8.74,14.24-2.39,5.66-2.93,12.6-4.64,18.51-.61.54-1.28-3.25-1.36-3.56Z"/>
    </g>
    <path class="cls-8" d="M251.35,217.8c-10.62,13.85-13.62,24.8-19.93,40.58-.23.57-.33,1.36-1.09,1.28-.77-5.87-1.82-11.77-2.46-17.66l1.36,1.57c-1.07-6.53-.94-13.07-1.09-19.65-.04-1.82-.35-4.93-.27-7.4.02-.52-.28-1.41.55-1.28-.08,1.54-.65,5.81-.27,6.98.19.59.26.59.82.28l1.36-19.51c1.06-2.73,2.91-4.94,4.37-7.4,2.31-1.79,4.05-4.51,6.69-5.98l.27.57c4.51-3.08,6.72-5.28,12.01-2.85.67.31.77.97,1.09,1.14.05.03.57-.58,1.09-.28.29.17-.45.57,0,.85,1.31.82,3.69,1.48,4.5,2.99.3.55,2.27,9.19,2.18,9.68-.39,2.37-9.65,12.43-11.47,15.09l.27,1Z"/>
    <path class="cls-7" d="M234.7,195.58c-1.46,2.47-3.3,4.67-4.37,7.4-1.54,3.95-1.7,8.03-1.91,12.25-.82-.12-.53.76-.55,1.28-.08,2.47.23,5.59.27,7.4.15,6.58.02,13.12,1.09,19.65l-1.36-1.57c-1.58-14.51-4.26-37.07,4.64-49.41,2.27-3.15,4.72-4.58,8.46-3.99-1.17.58-9.19,6.78-7.51,8.12.07.05.93-.9,1.23-1.14Z"/>
    <g>
      <path class="cls-3" d="M143.66,194.44c.27-.07,4.94.22,5.46.28,3.88.52,4.83,1.95,8.19,4.27,2.82,1.95,6.34,3.59,7.78,6.98-2.65,4.88-6.1,9.36-8.74,14.24-4.42,8.18-5.09,12.16-7.1,20.79-1.99,8.56-3.3,16.71-5.73,25.06-.14.5.57,2.84-1.23,2.42-1.94-5.56-3.31-11.31-5.05-16.94-4.77-15.38-7.13-23.39-3.82-40.15.08-.4-.36-.46-.27-.85.08-.36.46.35.55,0,.13-.56-.42-.88-.27-1.42,1.11-4.1,3.62-8.35,6.55-11.39.7-.73,2.89-3.07,3.69-3.28Z"/>
      <path class="cls-7" d="M158.54,210.68c-6.4,9.86-11.34,20.66-13.65,32.32-.87,4.41-1.24,13.6-2.46,17.09-.07.19-.82.88-1.09,1-2.37-7.64-4.7-15.31-7.1-22.93,2.29-1.36.43-1.87.27-4.27-.62-9.83.32-29.36,9.14-35.46,2-1.38,7.05.28,9.01,1.71.56.41,3.31,3.76,3.69,4.41.49.85-.18,1.36,0,1.71.65,1.29,2.59,2.55,2.18,4.41Z"/>
      <path class="cls-4" d="M141.34,261.08c.27-.12,1.03-.81,1.09-1,1.21-3.49,1.59-12.68,2.46-17.09,2.3-11.67,7.25-22.47,13.65-32.32.75-1.15,3.19-4.53,4.23-5.13.32-.18.58-.7.68.14-3.95,7.25-9.99,15.02-12.83,22.78-4.07,11.14-5.15,25.33-7.64,37.02-.83-1.1-1.21-3.05-1.64-4.41Z"/>
    </g>
    <path class="cls-7" d="M240.43,312.35c4.03,9.15,8.82,17.58,14.2,25.92,1.29,2,2.45,4.03,3.82,5.98-.53.06-.79-.57-1.36-.14-.45.33,4.28,6.57,4.91,7.4,4.33,5.69,9.01,10.78,14.2,15.66.04.4-3.93,5.85-4.91,5.98.29.19.33.09.55.43l-18.7,2.85-6.96-12.53c-.48-1.24-2.02-5.88-2.46-6.55-.35-4.18-2.1-7.94-2.73-12.1-.51-3.34-.43-7.47-.82-10.96-.73-6.54-1.7-13.65-1.64-19.79,0-.09-1.04-1.32-.14-1.57.13-.03.67,1.18,2.05-.57Z"/>
    <path class="cls-7" d="M237.43,303.23c-1.01-.05-.43,1.11-.27,1.57.78,2.27,2.27,5.27,3.28,7.55-1.38,1.75-1.92.54-2.05.57-.9.24.14,1.47.14,1.57-.06,6.14.91,13.25,1.64,19.79-1.51,3.23,1.99,14.6,1.36,16.66-.53,1.71-1.57-3.63-1.64-3.99-1.74-9.67-1.7-21.85-2.73-31.9-.51-5.02-2.13-10.13-1.5-15.24.92.81,1.22,2.29,1.77,3.42Z"/>
    <path class="cls-2" d="M237.43,303.23c4.21,8.5,8.09,16.71,13.1,24.78,1.82,3.52,2.64,6.69,4.64,9.97l-.55.28c-5.38-8.33-10.16-16.77-14.2-25.92-1.01-2.28-2.49-5.28-3.28-7.55-.16-.46-.74-1.61.27-1.57Z"/>
    <path class="cls-2" d="M243.71,357.34c.43.67,1.98,5.31,2.46,6.55,1.07,2.77,1.67,5.41,3,8.26l-.82.85c-.8-1.71-6.77-15.94-5.87-16.52.13-.08.58.06.82,0,.12.41.2.53.41.85Z"/>
    <path class="cls-7" d="M252.99,378.99c4.08-2.05,16.64-2.34,19.65-4.56.52-.38,5.32-7.1,5.19-7.55-7.16-6.79-13.66-14.5-19.38-22.64-1.37-1.95-2.53-3.98-3.82-5.98l.55-.28c2.9,4.76,8.61,11.4,12.28,15.81,4.05,4.86,8.79,9.11,12.56,14.24l-6.14,8.4c-6.81,1.21-13.56,3.08-20.47,3.42-.46-.17-.38-.82-.41-.85Z"/>
    <path class="cls-7" d="M271.82,373.57c.22.33.4.75.82.85-3.01,2.22-15.58,2.51-19.65,4.56-1.14-1.11-3.06-5.21-3.82-6.83-1.33-2.84-1.93-5.49-3-8.26l6.96,12.53,18.7-2.85Z"/>
    <path class="cls-7" d="M327.24,348.51c-1.59,1.47-1.84,2.91-3,4.41-.51.66-3.45,3.94-3.96,4.13-.62.23-1.03-.59-1.09-.57-.09.02-.93.74-1.64.85-1.65.28-3.75.23-5.46.57.97-6.92.69-16.29-.68-23.21-.1-.51-.33-1.7-1.09-1.57.1-2.71-.03-5.25.27-7.97.77-.57.73-.16,1.09.43,5.17,8.45,10.14,14.93,15.56,22.93Z"/>
    <path class="cls-2" d="M327.24,348.51c.41.61,1.72.95,1.36,2.14-2.61,1.86-4.37,4.74-6.55,6.98l-13.38,2.85c.6-3.41,2.22-6.79,2.46-10.68.09-1.41.72-7.55-1.36-6.69.26-3.36.42-6.59.55-9.97.77-.13.99,1.06,1.09,1.57,1.38,6.92,1.65,16.29.68,23.21,1.71-.34,3.81-.29,5.46-.57.71-.12,1.55-.83,1.64-.85.06-.02.47.8,1.09.57.51-.19,3.45-3.46,3.96-4.13,1.16-1.51,1.41-2.94,3-4.41Z"/>
    <path class="cls-2" d="M322.05,357.63c-.16.17-.56,1.17-.96,1.42-1.41.93-11.15,2.02-12.42,1.42l13.38-2.85Z"/>
    <path class="cls-7" d="M282.47,259.38c.11-.29-.17-.86.14-1.14.51.44-.12,1.08-.14,1.14Z"/>
    <path class="cls-7" d="M283.29,256.24s.05-.39.27-.85c-.09.46.03.37-.27.85Z"/>
    <path class="cls-7" d="M283.56,255.39c.09-.18-.15-.67.14-.85.48.51-.13.81-.14.85Z"/>
    <path class="cls-7" d="M282.2,260.23s.14-.5.27-.85c-.1.4.05.35-.27.85Z"/>
    <path class="cls-3" d="M228.42,215.23c.21-4.22.37-8.3,1.91-12.25l-1.36,19.51c-.55.31-.63.3-.82-.28-.38-1.17.2-5.43.27-6.98Z"/>
    <path class="cls-3" d="M258.45,344.24c5.73,8.14,12.22,15.85,19.38,22.64.13.44-4.67,7.16-5.19,7.55-.42-.11-.6-.52-.82-.85s-.25-.24-.55-.43c.98-.13,4.95-5.58,4.91-5.98-5.19-4.88-9.87-9.97-14.2-15.66-.64-.84-5.36-7.07-4.91-7.4.58-.43.84.21,1.36.14Z"/>
  </g>
  <path class="cls-6" d="M104.7,215.55c-3.73-1.72,1.75-22.38,1.75-22.38,0,0,4.63-.19,7.02-1.72,2.87-1.84,2.44-5.59,3.51-10.33,1.28-5.68,3.94-9.43,7.02-13.77,4.89-6.89,10.18-10.49,17.54-15.5,5.85-3.98,6.77-3.69,7.02-3.44.83.79-1.65,4.55-3.8,7.78-4.54,6.83-8.63,11.02-8.49,11.16.24.22,10.27-11,24.56-22.38,2.73-2.18,6.5-4.89,14.04-10.33,11.9-8.59,17.95-12.93,22.81-15.5,8.43-4.45,15.22-6.44,22.81-8.61,19.56-5.59,38.18-6.92,38.38-5.86.1.52-4.24,1.04-12.07,4.14-8.04,3.18-9.16,5.4-22.81,12.05-10.34,5.04-12.49,6.16-12.28,6.89.57,2,18.43-1,29.83-3.44,12.73-2.73,11.86-3.6,21.05-5.17,14.27-2.43,25.82-1.96,31.58-1.72,9.1.37,17.19,1.59,18.59,1.8.79.12,1.47.23,2.02.32,7.62,1.24,14.52,2.36,14.48,3.04-.04.77-8.86.05-22.81,1.72,0,0-11.43,1.37-20.87,5.09-.07.03-.16.06-.18.07-2.22.88-10.76,4.28-10.53,5.17.24.89,8.92-2.13,21.05-1.72,2.48.08,9.33.45,17.69,3,7.93,2.42,15.98,6.42,15.65,7.33-.44,1.22-14.82-5.94-35.09-5.17,0,0-11.89.46-26.32,6.89-1.86.83-5.51,2.55-5.26,3.44.36,1.31,8.48-.92,19.3,0,5.18.44,8.72,1.44,15.79,3.44,14.88,4.21,20.44,8.36,22.81,10.33,1.55,1.28,6.14,5.09,5.26,6.89-1.22,2.49-12.16-.52-12.28,0-.12.54,11.86,2.33,24.56,8.61,6.04,2.98,10.51,6.13,14.04,8.61,7.41,5.21,8.12,6.86,17.55,13.77,5.53,4.05,9.1,6.28,8.77,6.89-.71,1.33-18.41-8.55-21.05-5.17-1.44,1.84,1.95,7.16,5.26,10.33,3.09,2.96,6.26,4.17,8.77,5.17,10.01,3.98,15.01,5.97,19.3,8.61,1.63,1,6.96,6.42,17.55,17.22,5.57,5.68,7.58,7.78,7.02,8.61-.77,1.14-6.28-.39-10.53-3.44-4.66-3.34-6.07-7.27-7.02-6.89-1.02.42-.66,5.56,1.75,10.33,2.92,5.76,6.01,5.38,10.53,12.05,3.31,4.88,2.38,6.15,5.26,8.61,2.96,2.52,7.73,4.43,12.28,3.44,5.52-1.19,7.21-5.9,8.77-5.17,2.29,1.07,1.49,12.46-5.26,18.94-1.21,1.16-1.17.78-7.02,5.17-5.01,3.76-7.52,5.64-8.77,6.89-5.38,5.36-7.41,11.43-8.77,15.5-1.36,4.05-3.18,9.5-1.75,10.33,3.13,1.83,18.43-20.55,21.05-18.94,1.46.89-1.84,8.67-3.51,12.05-1.32,2.69-3.46,6.33-7.02,10.33-4.89,5.5-5.61,3.95-12.28,10.33-3.71,3.55-11.74,11.91-14.04,13.77-1.28,1.03-2.6,2.04-2.6,2.04-.34.26-.73.56-1.2.89-2.47,1.79-3.28,2.04-3.22,2.24.16.58,7.73.8,14.04-3.44,4.7-3.17,6.33-7.22,7.02-6.89.93.45-.57,8.67-5.26,15.5-7.03,10.23-18.75,13.75-36.84,18.94-15.92,4.56-19.58,3.2-29.83,8.61-5.04,2.66-7.7,4.85-14.04,6.89-10.75,3.45-19.21,2.29-19.3,3.44-.08,1.03,6.61,3.15,14.04,3.44,10.84.43,20.95-3.13,28.51-5.78,1.79-.63,3.07-1.11,3.07-1.11,6.67-2.49,8.56-3.74,8.77-3.44.52.71-8.77,10.58-22.81,17.22-9.93,4.7-18.48,6-24.56,6.89-12.42,1.8-18.74,2.72-26.32,0-8.23-2.95-10.08-7.37-19.3-8.61-4.41-.59-4.64.33-12.28,0-11.19-.48-17.18-2.73-17.54-1.72-.38,1.04,5.61,4.66,12.28,6.89,8.32,2.78,13.87,2.11,14.04,3.44.19,1.5-6.54,4.4-14.04,5.17-7.05.72-10.46-.89-26.32-5.17-17.46-4.7-18.17-4.05-24.56-6.89-2.91-1.29-9.83-4.42-17.54-10.33-8.72-6.68-13-12.75-14.04-12.05-1.68,1.13,9.06,17.45,7.02,18.94-1.16.84-5.02-4.1-15.79-12.05-6.2-4.57-8.43-5.53-14.04-10.33-.65-.56-4.41-3.8-8.77-8.61-4.42-4.87-5.98-7.52-7.01-9.83-.51-1.14-1.29-3.1-1.76-5.67-.07-.38-1.16-6.5,0-6.89,1.36-.45,3.07,7.89,10.53,13.77,2.25,1.78,6.69,5.28,12.28,5.17,9.49-.19,14.33-10.62,19.3-8.61,1.54.62,1.62,1.85,3.51,5.17,0,0,4.52,7.95,12.28,13.77,2.23,1.67,8.57,6.43,17.54,6.89,10.99.57,19.42-5.63,21.05-6.89,6.76-5.18,8.36-10.79,12.28-10.33,2.66.31,3.34,3.06,7.02,6.89,4.94,5.14,10.53,7.27,14.04,8.61,2.14.81,16.46,6.27,28.07,0,3.73-2.01,7.75-6.51,15.79-15.5,4.82-5.39,6.79-8.19,10.53-8.61,4.91-.55,6.05,3.77,12.28,5.17,7.77,1.74,17.59-2.39,22.81-8.61,4.42-5.26,3.87-10.02,8.77-12.05,3.24-1.34,5.42-.07,8.77,0,10.45.2,18.8-11.57,22.81-17.22,9.98-14.07,10.5-28.85,10.53-32.71.14-18.35-8.8-32.84-12.28-37.88-3.74-5.41-7.8-9.51-7.02-10.33.88-.93,7.8,2.58,12.28,8.61,4.01,5.4,4.32,10.47,5.26,10.33,1.08-.16,1.94-6.94,0-13.77-2.73-9.61-9.87-15.34-12.28-17.22-1.41-1.1-4.4-3.27-8.77-5.17-12.51-5.41-20.44-1.63-24.56-6.89-1.26-1.6-.7-2.18-1.75-8.61-1.66-10.11-2.77-16.82-7.02-22.38-5.77-7.57-14.81-9.69-17.55-10.33-3.68-.86-9.52-2.23-15.79,0-6.07,2.16-8.48,6.25-12.28,5.17-1.12-.32-1.73-.91-5.26-5.17-5.04-6.07-5.58-7-7.02-8.61-1.49-1.65-5.77-6.06-12.28-8.61-2.08-.82-8.46-3.31-15.79-1.72-8.44,1.83-18.85,9.24-22.81,12.05-.92.66-2.97,2.14-5.26,1.72-2.39-.44-3.06-2.6-5.26-5.17-5-5.84-12.77-7.83-15.79-8.61-4.37-1.12-6.87-.83-7.02-1.72-.37-2.19,14.32-5.4,14.04-6.89-.22-1.13-9.26-2.23-17.54,1.72-8.01,3.82-12.95,11.24-15.79,15.5-4.94,7.41-5.48,11.72-8.77,12.05-3.75.38-4.98-5.04-12.28-6.89-4.07-1.03-7.51-.32-8.77,0-4.91,1.23-8.55,3.95-8.77,5.17-1.36,7.53-13.36,7.78-17.96,12.58-2.29,2.39-8.39,15.76-10.11,14.97Z"/>
</svg>